# xmcd CD database file
#
# Track frame offsets:
#	182
#	19235
#	34570
#	52242
#	66397
#	78600
#	98847
#	120130
#	132757
#	152070
#	169917
#	183480
#	202307
#	216917
#	233492
#	245492
#
# Disc length: 3490 seconds
#
# Revision: 0
# Processed by: cddbd v1.5.1PL0 Copyright (c) Steve Scherf et al.
# Submitted via: CDex 1.51
#
DISCID=e10da010
DTITLE=Stan Coster - Only a Bushman Would Know
DYEAR=2004
DGENRE=Country
TTITLE0=Only a Bushman would know
TTITLE1=Dorothy, Ballads and Beer
TTITLE2=When the Desert Flowers Bloom
TTITLE3=Australian Bushmen
TTITLE4=Lead Me Down to the Stockyard
TTITLE5=He's a Good Bloke Sober, But
TTITLE6=Schulzie's Mountain
TTITLE7=return of the Stockman
TTITLE8=A Tribute to Thiess Bros
TTITLE9=Some Things a Man Can't Fight
TTITLE10=Stockmates
TTITLE11=Trumbies's Ghost
TTITLE12=Richard Head
TTITLE13=The Bushman's Song
TTITLE14=Whoa Bullocks Whoa
TTITLE15=The Old Rocking Horse
EXTD=YEAR: 2004
EXTT0=
EXTT1=
EXTT2=
EXTT3=
EXTT4=
EXTT5=
EXTT6=
EXTT7=
EXTT8=
EXTT9=
EXTT10=
EXTT11=
EXTT12=
EXTT13=
EXTT14=
EXTT15=
PLAYORDER=
